<svg width="37" height="36" fill="none" xmlns="http://www.w3.org/2000/svg"><path d="M1.769 16.42h12.937a1.74 1.74 0 001.742-1.741V1.742A1.74 1.74 0 0014.706 0H1.769A1.74 1.74 0 00.027 1.742v12.937A1.74 1.74 0 001.77 16.42zM34.285 0H21.348a1.74 1.74 0 00-1.742 1.742v12.937a1.74 1.74 0 001.742 1.742h12.937a1.74 1.74 0 001.742-1.742V1.742A1.74 1.74 0 0034.285 0zM1.77 36h12.937a1.74 1.74 0 001.742-1.742V21.321a1.74 1.74 0 00-1.742-1.742H1.769a1.74 1.74 0 00-1.742 1.742v12.937A1.74 1.74 0 001.77 36zm32.516-16.42H21.348a1.74 1.74 0 00-1.742 1.741v12.937A1.74 1.74 0 0021.348 36h12.937a1.74 1.74 0 001.742-1.742V21.321a1.74 1.74 0 00-1.742-1.742z" fill="#2D2D2D"/></svg>