<svg width="25" height="25" fill="none" xmlns="http://www.w3.org/2000/svg"><path fill-rule="evenodd" clip-rule="evenodd" d="M12.5 0C19.404 0 25 5.596 25 12.5S19.404 25 12.5 25 0 19.404 0 12.5 5.596 0 12.5 0zm.749 5.091c.85.107 1.537.311 2.29.68.741.362 1.216.705 1.843 1.329.588.59.915 1.036 1.26 1.73.482.966.757 2.116.803 3.382.017.431.005.527-.094.651-.187.239-.6.2-.74-.07-.045-.088-.058-.165-.073-.51A8.95 8.95 0 0018.403 11c-.292-1.606-1.063-2.888-2.293-3.809-1.025-.77-2.085-1.144-3.474-1.226-.47-.027-.55-.044-.657-.126-.198-.155-.208-.52-.018-.69.116-.106.198-.122.6-.11.21.008.52.033.688.053zM7.6 5.358c.087.03.22.099.297.148.47.31 1.777 1.981 2.204 2.815.245.476.326.829.25 1.09-.08.282-.21.43-.796.901-.235.19-.455.385-.49.437a1.15 1.15 0 00-.16.557c.003.412.269 1.16.62 1.734.272.447.759 1.02 1.24 1.459.566.517 1.065.87 1.629 1.15.724.36 1.166.451 1.49.3.081-.037.168-.086.195-.109.024-.022.215-.254.422-.51.4-.504.492-.585.766-.679.349-.118.705-.086 1.063.097.271.14.864.508 1.247.774.504.353 1.582 1.231 1.727 1.406.258.316.302.721.13 1.167-.184.471-.895 1.355-1.392 1.732-.45.34-.768.472-1.189.49-.346.019-.489-.011-.93-.194-3.47-1.428-6.24-3.56-8.438-6.488-1.15-1.53-2.024-3.116-2.622-4.761-.349-.96-.365-1.377-.08-1.868.124-.207.65-.72 1.034-1.006.637-.474.931-.65 1.166-.699.16-.034.44-.007.617.057zm5.82 1.522c1.5.22 2.66.916 3.421 2.045.428.637.695 1.385.786 2.186.032.294.032.83-.002.918a.561.561 0 01-.226.244.551.551 0 01-.414-.014c-.19-.097-.247-.25-.247-.664 0-.64-.166-1.312-.452-1.836a3.753 3.753 0 00-1.38-1.433c-.496-.296-1.23-.515-1.9-.57-.242-.02-.375-.069-.467-.175a.449.449 0 01-.037-.558c.129-.2.327-.232.917-.143zm.525 1.863c.487.104.86.288 1.179.587.41.387.635.856.734 1.53.066.439.04.612-.116.754-.146.134-.416.139-.579.013-.118-.089-.155-.183-.182-.437-.033-.338-.092-.575-.193-.794-.217-.467-.6-.708-1.248-.787-.304-.037-.395-.072-.494-.188a.459.459 0 01.139-.69c.093-.047.133-.052.34-.04a3.3 3.3 0 01.42.052z" fill="#102F28"/></svg>