<svg width="25" height="25" fill="none" xmlns="http://www.w3.org/2000/svg"><g clip-path="url(#clip0_72_296)"><path d="M12.503 0h-.006C5.605 0 0 5.606 0 12.5a12.407 12.407 0 002.38 7.327L.822 24.47l4.805-1.536A12.391 12.391 0 0012.503 25C19.395 25 25 19.392 25 12.5S19.395 0 12.503 0zm7.274 17.652c-.302.851-1.499 1.557-2.454 1.764-.653.139-1.506.25-4.378-.941-3.673-1.522-6.039-5.255-6.223-5.497-.177-.242-1.484-1.976-1.484-3.77s.91-2.667 1.278-3.042c.301-.308.8-.449 1.278-.449.154 0 .294.008.419.014.367.016.551.038.793.617.302.727 1.036 2.52 1.124 2.705.089.184.178.434.053.677-.117.25-.22.36-.405.573-.184.213-.36.375-.544.603-.168.199-.359.411-.146.778.212.36.946 1.558 2.028 2.52 1.395 1.243 2.526 1.64 2.93 1.808.303.125.662.096.882-.139.28-.301.625-.801.977-1.293.25-.353.565-.397.897-.272.337.117 2.123 1 2.49 1.183.367.184.61.271.699.426.087.155.087.881-.214 1.735z" fill="#102F28"/></g><defs><clipPath id="clip0_72_296"><path fill="#fff" d="M0 0h25v25H0z"/></clipPath></defs></svg>